<svg xmlns="http://www.w3.org/2000/svg" width="20.969" height="15.72"><path d="M20.163 1.36C19.405.4 18.006.01 15.335.01h-9.7C2.902.01 1.48.42.725 1.45c-.736.99-.736 2.46-.736 4.49v3.87c0 3.93.873 5.92 5.646 5.92h9.7c2.317 0 3.6-.34 4.431-1.19.851-.86 1.215-2.28 1.215-4.73V5.94c0-2.14-.057-3.62-.818-4.58zm-6.7 7.05l-4.4 2.45a.7.7 0 01-.313.08.649.649 0 01-.351-.11.721.721 0 01-.326-.61V5.33a.722.722 0 01.325-.61.658.658 0 01.664-.03l4.4 2.44a.723.723 0 01.365.64.746.746 0 01-.36.64z" fill="#fcfcfc" fill-rule="evenodd"/></svg>