<svg height="512pt" viewBox="0 0 512 512" width="512pt" xmlns="http://www.w3.org/2000/svg"><path d="M256 0C148.062 0 60.25 87.813 60.25 195.75c0 37.137 10.45 73.277 30.215 104.523a196.33 196.33 0 0070.203 66.454v49.941C160.668 469.234 203.434 512 256 512h.004c25.46 0 49.398-9.918 67.402-27.922 18.008-18.008 27.926-41.945 27.926-67.41v-49.945a196.35 196.35 0 0070.203-66.45c19.766-31.246 30.211-67.386 30.211-104.523C451.75 87.812 363.938 0 256 0zm-65.332 412.355v-39.644h130.664v39.644zm65.328-179.382c-8.281 0-15 6.715-15 15v94.742h-50.328v-111.88h130.668l-.004 111.88h-50.336v-94.742c0-8.285-6.715-15-15-15zm-25.922-50.332h51.848l18.195 18.195H211.88zM256 482c-26.91 0-50.063-16.355-60.063-39.645h120.157a65.266 65.266 0 01-13.899 20.512C289.855 475.203 273.45 482 256 482zm95.332-150.602V215.836c0-3.98-1.578-7.793-4.39-10.606l-80.337-80.332c-5.859-5.855-15.355-5.855-21.214 0l-80.328 80.332a14.986 14.986 0 00-4.395 10.606v115.562C116.711 300.637 90.25 250.625 90.25 195.75 90.25 104.355 164.605 30 256 30s165.75 74.355 165.75 165.75c0 54.875-26.46 104.887-70.418 135.648zM15 180.75a15.14 15.14 0 00-10.61 4.39C1.603 187.939 0 191.8 0 195.75s1.602 7.809 4.39 10.61c2.801 2.788 6.66 4.39 10.61 4.39s7.82-1.602 10.61-4.39c2.788-2.801 4.39-6.66 4.39-10.61s-1.602-7.813-4.39-10.61A15.14 15.14 0 0015 180.75zm492.602 4.39c-2.793-2.788-6.653-4.39-10.602-4.39s-7.82 1.602-10.61 4.39c-2.788 2.801-4.39 6.66-4.39 10.61s1.602 7.809 4.39 10.61c2.79 2.788 6.66 4.39 10.61 4.39s7.809-1.602 10.602-4.39c2.796-2.801 4.398-6.66 4.398-10.61s-1.602-7.813-4.398-10.61zM85.59 40.34a15.11 15.11 0 0010.61-4.4 15.103 15.103 0 004.39-10.601c0-3.95-1.602-7.82-4.39-10.61a15.137 15.137 0 00-10.61-4.39c-3.95 0-7.82 1.601-10.61 4.39a15.114 15.114 0 00-4.39 10.61 15.1 15.1 0 004.39 10.601 15.11 15.11 0 0010.61 4.399zm340.82 310.82c-3.941 0-7.808 1.61-10.601 4.399a15.084 15.084 0 00-4.399 10.601c0 3.95 1.602 7.82 4.399 10.61a15.117 15.117 0 0010.601 4.39c3.95 0 7.82-1.601 10.61-4.39a15.116 15.116 0 004.39-10.61 15.11 15.11 0 00-4.39-10.601 15.122 15.122 0 00-10.61-4.399zm0-310.82c3.942 0 7.809-1.602 10.61-4.399a15.103 15.103 0 004.39-10.601c0-3.95-1.601-7.82-4.39-10.61a15.135 15.135 0 00-10.61-4.39c-3.95 0-7.82 1.601-10.61 4.39a15.114 15.114 0 00-4.39 10.61c0 3.95 1.602 7.808 4.39 10.601a15.11 15.11 0 0010.61 4.399zM85.59 351.16c-3.95 0-7.82 1.61-10.61 4.399a15.11 15.11 0 00-4.39 10.601c0 3.95 1.601 7.82 4.39 10.61a15.116 15.116 0 0010.61 4.39 15.1 15.1 0 0010.601-4.39 15.089 15.089 0 004.399-10.61c0-3.941-1.602-7.812-4.399-10.601-2.793-2.79-6.652-4.399-10.601-4.399zm0 0"/></svg>