<svg height="512pt" viewBox="0 0 512 512" width="512pt" xmlns="http://www.w3.org/2000/svg"><path d="M507.605 165.063L346.941 4.394A14.995 14.995 0 00336.332 0H135.5c-30.418 0-55.168 24.746-55.168 55.168v193.863H55.164C24.746 249.031 0 273.781 0 304.2v64.27c0 30.418 24.746 55.164 55.164 55.164h25.168v33.199c0 30.422 24.75 55.168 55.168 55.168h321.332C487.254 512 512 487.254 512 456.832V175.668a14.99 14.99 0 00-4.395-10.605zM351.332 51.215l109.453 109.453H376.5c-13.879 0-25.168-11.29-25.168-25.168zM30 368.469v-64.27c0-13.875 11.29-25.168 25.164-25.168h281.168c13.879 0 25.168 11.293 25.168 25.168v64.27c0 13.875-11.29 25.164-25.168 25.164H55.164C41.29 393.633 30 382.343 30 368.469zM456.832 482H135.5c-13.879 0-25.168-11.29-25.168-25.168v-33.2h226c30.422 0 55.168-24.745 55.168-55.163v-64.27c0-30.418-24.746-55.168-55.168-55.168h-226V55.168C110.332 41.289 121.622 30 135.5 30h185.832v105.5c0 30.418 24.75 55.168 55.168 55.168H482v266.164C482 470.711 470.71 482 456.832 482zm0 0"/></svg>