<svg xmlns="http://www.w3.org/2000/svg" height="512pt" viewBox="0 0 512 512" width="512pt"><path d="M507.605 486.395l-60.293-60.297C489.125 379.188 512 319.355 512 256c0-49.285-13.867-96.645-40.207-137.773l35.812-35.813a15.005 15.005 0 003.993-14.055 14.99 14.99 0 00-9.856-10.78l-35.484-11.833-11.828-35.488A15.017 15.017 0 00443.645.402a15.015 15.015 0 00-14.055 3.993L393.777 40.21C352.645 13.87 305.281 0 256 0 187.621 0 123.332 26.629 74.98 74.98 26.63 123.332 0 187.621 0 256c0 63.355 22.875 123.188 64.691 170.098L4.395 486.395c-5.86 5.855-5.86 15.355 0 21.21A14.948 14.948 0 0015 512c3.84 0 7.68-1.465 10.605-4.395l60.297-60.296C132.812 489.129 192.645 512 256 512c63.355 0 123.188-22.875 170.098-64.691l60.297 60.296A14.948 14.948 0 00497 512c3.84 0 7.68-1.465 10.605-4.395 5.86-5.855 5.86-15.351 0-21.21zM433.645 42.77l6.523 19.574a14.997 14.997 0 009.484 9.488l19.578 6.527-33.085 33.086-26.692-8.898-8.898-26.692zM321.335 256c0 36.023-29.312 65.332-65.335 65.332-36.023 0-65.332-29.309-65.332-65.332 0-36.023 29.309-65.332 65.332-65.332a64.913 64.913 0 0134.336 9.781l-44.941 44.946c-5.86 5.859-5.86 15.355 0 21.21A14.941 14.941 0 00256 271c3.84 0 7.68-1.465 10.605-4.395l44.946-44.94A64.916 64.916 0 01321.336 256zm-9.397-77.148c-15.723-11.43-35.055-18.184-55.938-18.184-52.566 0-95.332 42.766-95.332 95.332 0 52.566 42.766 95.332 95.332 95.332 52.566 0 95.336-42.766 95.336-95.332 0-20.883-6.754-40.21-18.188-55.938l35.864-35.859c20.402 25.07 32.656 57.027 32.656 91.797 0 80.32-65.348 145.668-145.668 145.668-80.32 0-145.664-65.348-145.664-145.668 0-80.32 65.344-145.668 145.664-145.668 34.77 0 66.727 12.254 91.8 32.656zM30 256C30 131.383 131.383 30 256 30c41.297 0 81.059 11.02 116.031 32.012a15 15 0 00-2.87 14.539l11.273 33.804-11.34 11.34C338.512 95.902 299.043 80.332 256 80.332c-96.863 0-175.664 78.805-175.664 175.668S159.136 431.668 256 431.668c96.863 0 175.668-78.805 175.668-175.668 0-43.043-15.57-82.512-41.363-113.094l11.34-11.34 33.808 11.274c1.555.515 3.152.77 4.742.77a15 15 0 009.79-3.653C470.98 174.934 482 214.699 482 256c0 124.617-101.383 226-226 226S30 380.617 30 256zm0 0" id="surface1"/></svg>