<svg xmlns="http://www.w3.org/2000/svg" width="20.969" height="15.72" viewBox="0 0 20.969 15.72">
  <metadata><?xpacket begin="﻿" id="W5M0MpCehiHzreSzNTczkc9d"?>
<x:xmpmeta xmlns:x="adobe:ns:meta/" x:xmptk="Adobe XMP Core 5.6-c138 79.159824, 2016/09/14-01:09:01        ">
   <rdf:RDF xmlns:rdf="http://www.w3.org/1999/02/22-rdf-syntax-ns#">
      <rdf:Description rdf:about=""/>
   </rdf:RDF>
</x:xmpmeta>
                                                                                                    
                                                                                                    
                                                                                                    
                                                                                                    
                                                                                                    
                                                                                                    
                                                                                                    
                                                                                                    
                                                                                                    
                                                                                                    
                                                                                                    
                                                                                                    
                                                                                                    
                                                                                                    
                                                                                                    
                                                                                                    
                                                                                                    
                                                                                                    
                                                                                                    
                                                                                                    
                           
<?xpacket end="w"?></metadata>
<defs>
    <style>
      .cls-1 {
        fill: #fcfcfc;
        fill-rule: evenodd;
      }
    </style>
  </defs>
  <path class="cls-1" d="M202.882,5148.45c-0.758-.96-2.157-1.35-4.828-1.35h-9.7c-2.733,0-4.155.41-4.91,1.44-0.736.99-.736,2.46-0.736,4.49v3.87c0,3.93.873,5.92,5.646,5.92h9.7c2.317,0,3.6-.34,4.431-1.19,0.851-.86,1.215-2.28,1.215-4.73v-3.87C203.7,5150.89,203.643,5149.41,202.882,5148.45Zm-6.7,7.05-4.4,2.45a0.7,0.7,0,0,1-.313.08,0.649,0.649,0,0,1-.351-0.11,0.721,0.721,0,0,1-.326-0.61v-4.89a0.722,0.722,0,0,1,.325-0.61,0.658,0.658,0,0,1,.664-0.03l4.4,2.44a0.723,0.723,0,0,1,.365.64A0.746,0.746,0,0,1,196.186,5155.5Z" transform="translate(-182.719 -5147.09)"/>
</svg>
