<svg height="512pt" viewBox="0 0 512 512" width="512pt" xmlns="http://www.w3.org/2000/svg"><path d="m256 0c-107.9375 0-195.75 87.8125-195.75 195.75 0 37.136719 10.449219 73.277344 30.214844 104.523438 17.539062 27.722656 41.691406 50.53125 70.203125 66.453124v49.941407c0 52.566406 42.765625 95.332031 95.332031 95.332031h.003906c25.460938 0 49.398438-9.917969 67.402344-27.921875 18.007812-18.007813 27.925781-41.945313 27.925781-67.410156v-49.945313c28.507813-15.921875 52.664063-38.726562 70.203125-66.449218 19.765625-31.246094 30.210938-67.386719 30.210938-104.523438.003906-107.9375-87.808594-195.75-195.746094-195.75zm-65.332031 412.355469v-39.644531h130.664062v39.644531zm65.328125-179.382813c-8.28125 0-15 6.714844-15 15v94.742188h-50.328125v-111.878906h130.667969l-.003907 111.878906h-50.335937v-94.742188c0-8.285156-6.714844-15-15-15zm-25.921875-50.332031h51.847656l18.195313 18.195313h-88.238282zm25.925781 299.359375c-26.910156 0-50.0625-16.355469-60.0625-39.644531h120.15625c-3.234375 7.5625-7.90625 14.519531-13.898438 20.511719-12.339843 12.335937-28.746093 19.132812-46.195312 19.132812zm95.332031-150.601562v-115.5625c0-3.980469-1.578125-7.792969-4.390625-10.605469l-80.335937-80.332031c-5.859375-5.855469-15.355469-5.855469-21.214844 0l-80.328125 80.332031c-2.816406 2.8125-4.394531 6.628906-4.394531 10.605469v115.5625c-43.957031-30.761719-70.417969-80.773438-70.417969-135.648438 0-91.394531 74.355469-165.75 165.75-165.75s165.75 74.355469 165.75 165.75c0 54.875-26.460938 104.886719-70.417969 135.648438zm0 0"/><path d="m15 180.75c-3.949219 0-7.808594 1.601562-10.609375 4.390625-2.789063 2.796875-4.390625 6.660156-4.390625 10.609375s1.601562 7.808594 4.390625 10.609375c2.800781 2.789063 6.660156 4.390625 10.609375 4.390625s7.820312-1.601562 10.609375-4.390625c2.789063-2.800781 4.390625-6.660156 4.390625-10.609375s-1.601562-7.8125-4.390625-10.609375c-2.800781-2.789063-6.660156-4.390625-10.609375-4.390625zm0 0"/><path d="m507.601562 185.140625c-2.792968-2.789063-6.652343-4.390625-10.601562-4.390625s-7.820312 1.601562-10.609375 4.390625c-2.789063 2.800781-4.390625 6.660156-4.390625 10.609375s1.601562 7.808594 4.390625 10.609375c2.789063 2.789063 6.660156 4.390625 10.609375 4.390625s7.808594-1.601562 10.601562-4.390625c2.796876-2.800781 4.398438-6.660156 4.398438-10.609375s-1.601562-7.8125-4.398438-10.609375zm0 0"/><path d="m85.589844 40.339844c3.949218 0 7.808594-1.601563 10.609375-4.398438 2.789062-2.792968 4.390625-6.652344 4.390625-10.601562 0-3.949219-1.601563-7.820313-4.390625-10.609375-2.800781-2.789063-6.660157-4.390625-10.609375-4.390625-3.949219 0-7.820313 1.601562-10.609375 4.390625-2.789063 2.789062-4.390625 6.660156-4.390625 10.609375 0 3.949218 1.601562 7.808594 4.390625 10.601562 2.800781 2.796875 6.660156 4.398438 10.609375 4.398438zm0 0"/><path d="m426.410156 351.160156c-3.941406 0-7.808594 1.609375-10.601562 4.398438-2.796875 2.789062-4.398438 6.660156-4.398438 10.601562 0 3.949219 1.601563 7.820313 4.398438 10.609375 2.792968 2.789063 6.660156 4.390625 10.601562 4.390625 3.949219 0 7.820313-1.601562 10.609375-4.390625 2.789063-2.789062 4.390625-6.660156 4.390625-10.609375 0-3.941406-1.601562-7.8125-4.390625-10.601562-2.789062-2.789063-6.660156-4.398438-10.609375-4.398438zm0 0"/><path d="m426.410156 40.339844c3.941406 0 7.808594-1.601563 10.609375-4.398438 2.789063-2.792968 4.390625-6.652344 4.390625-10.601562 0-3.949219-1.601562-7.820313-4.390625-10.609375-2.800781-2.789063-6.660156-4.390625-10.609375-4.390625-3.949218 0-7.820312 1.601562-10.609375 4.390625-2.789062 2.789062-4.390625 6.660156-4.390625 10.609375 0 3.949218 1.601563 7.808594 4.390625 10.601562 2.800781 2.796875 6.660157 4.398438 10.609375 4.398438zm0 0"/><path d="m85.589844 351.160156c-3.949219 0-7.820313 1.609375-10.609375 4.398438-2.789063 2.789062-4.390625 6.660156-4.390625 10.601562 0 3.949219 1.601562 7.820313 4.390625 10.609375 2.789062 2.789063 6.660156 4.390625 10.609375 4.390625 3.949218 0 7.808594-1.601562 10.601562-4.390625 2.796875-2.789062 4.398438-6.660156 4.398438-10.609375 0-3.941406-1.601563-7.8125-4.398438-10.601562-2.792968-2.789063-6.652344-4.398438-10.601562-4.398438zm0 0"/></svg>