<svg height="512pt" viewBox="0 0 512 512" width="512pt" xmlns="http://www.w3.org/2000/svg"><path d="m507.605469 165.0625-160.664063-160.667969c-2.816406-2.816406-6.628906-4.394531-10.609375-4.394531h-200.832031c-30.417969 0-55.167969 24.746094-55.167969 55.167969v193.863281h-25.167969c-30.417968 0-55.164062 24.75-55.164062 55.167969v64.269531c0 30.417969 24.746094 55.164062 55.164062 55.164062h25.167969v33.199219c0 30.421875 24.75 55.167969 55.167969 55.167969h321.332031c30.421875 0 55.167969-24.746094 55.167969-55.167969v-281.164062c0-3.980469-1.582031-7.796875-4.394531-10.605469zm-156.273438-113.847656 109.453125 109.453125h-84.285156c-13.878906 0-25.167969-11.289063-25.167969-25.167969zm-321.332031 317.253906v-64.269531c0-13.875 11.289062-25.167969 25.164062-25.167969h281.167969c13.878907 0 25.167969 11.292969 25.167969 25.167969v64.269531c0 13.875-11.289062 25.164062-25.167969 25.164062h-281.167969c-13.875 0-25.164062-11.289062-25.164062-25.164062zm426.832031 113.53125h-321.332031c-13.878906 0-25.167969-11.289062-25.167969-25.167969v-33.199219h226c30.421875 0 55.167969-24.746093 55.167969-55.164062v-64.269531c0-30.417969-24.746094-55.167969-55.167969-55.167969h-226v-193.863281c0-13.878907 11.289063-25.167969 25.167969-25.167969h185.832031v105.5c0 30.417969 24.75 55.167969 55.167969 55.167969h105.5v266.164062c0 13.878907-11.289062 25.167969-25.167969 25.167969zm0 0"/></svg>