<svg xmlns="http://www.w3.org/2000/svg" height="512pt" version="1.1" viewBox="0 0 512.00038 512" width="512pt">
<g id="surface1">
<path d="M 507.605469 486.394531 L 447.3125 426.097656 C 489.125 379.1875 512 319.355469 512 256 C 512 206.714844 498.132812 159.355469 471.792969 118.226562 L 507.605469 82.414062 C 511.28125 78.734375 512.792969 73.417969 511.597656 68.359375 C 510.402344 63.300781 506.675781 59.21875 501.742188 57.578125 L 466.257812 45.746094 L 454.429688 10.257812 C 452.78125 5.328125 448.703125 1.597656 443.644531 0.402344 C 438.585938 -0.789062 433.269531 0.71875 429.589844 4.394531 L 393.777344 40.210938 C 352.644531 13.871094 305.28125 0 256 0 C 187.621094 0 123.332031 26.628906 74.980469 74.980469 C 26.628906 123.332031 0 187.621094 0 256 C 0 319.355469 22.875 379.1875 64.691406 426.097656 L 4.394531 486.394531 C -1.464844 492.25 -1.464844 501.75 4.394531 507.605469 C 7.324219 510.535156 11.160156 512 15 512 C 18.839844 512 22.679688 510.535156 25.605469 507.605469 L 85.902344 447.308594 C 132.8125 489.128906 192.644531 512 256 512 C 319.355469 512 379.1875 489.125 426.097656 447.308594 L 486.394531 507.605469 C 489.324219 510.535156 493.160156 512 497 512 C 500.839844 512 504.679688 510.535156 507.605469 507.605469 C 513.464844 501.75 513.464844 492.253906 507.605469 486.394531 Z M 433.644531 42.769531 L 440.167969 62.34375 C 441.660156 66.824219 445.175781 70.339844 449.652344 71.832031 L 469.230469 78.359375 L 436.144531 111.445312 L 409.453125 102.546875 L 400.554688 75.855469 Z M 321.335938 256 C 321.335938 292.023438 292.023438 321.332031 256 321.332031 C 219.976562 321.332031 190.667969 292.023438 190.667969 256 C 190.667969 219.976562 219.976562 190.667969 256 190.667969 C 268.589844 190.667969 280.351562 194.253906 290.335938 200.449219 L 245.394531 245.394531 C 239.535156 251.253906 239.535156 260.75 245.394531 266.605469 C 248.320312 269.535156 252.160156 271 256 271 C 259.839844 271 263.679688 269.535156 266.605469 266.605469 L 311.550781 221.664062 C 317.746094 231.648438 321.335938 243.410156 321.335938 256 Z M 311.9375 178.851562 C 296.214844 167.421875 276.882812 160.667969 256 160.667969 C 203.433594 160.667969 160.667969 203.433594 160.667969 256 C 160.667969 308.566406 203.433594 351.332031 256 351.332031 C 308.566406 351.332031 351.335938 308.566406 351.335938 256 C 351.335938 235.117188 344.582031 215.789062 333.148438 200.0625 L 369.011719 164.203125 C 389.414062 189.273438 401.667969 221.230469 401.667969 256 C 401.667969 336.320312 336.320312 401.667969 256 401.667969 C 175.679688 401.667969 110.335938 336.320312 110.335938 256 C 110.335938 175.679688 175.679688 110.332031 256 110.332031 C 290.769531 110.332031 322.726562 122.585938 347.800781 142.988281 Z M 30 256 C 30 131.382812 131.382812 30 256 30 C 297.296875 30 337.058594 41.019531 372.03125 62.011719 C 368.597656 65.992188 367.480469 71.511719 369.160156 76.550781 L 380.433594 110.355469 L 369.09375 121.695312 C 338.511719 95.902344 299.042969 80.332031 256 80.332031 C 159.136719 80.332031 80.335938 159.136719 80.335938 256 C 80.335938 352.863281 159.136719 431.667969 256 431.667969 C 352.863281 431.667969 431.667969 352.863281 431.667969 256 C 431.667969 212.957031 416.097656 173.488281 390.304688 142.90625 L 401.644531 131.566406 L 435.453125 142.839844 C 437.007812 143.355469 438.605469 143.609375 440.195312 143.609375 C 443.75 143.609375 447.230469 142.332031 449.984375 139.957031 C 470.980469 174.933594 482 214.699219 482 256 C 482 380.617188 380.617188 482 256 482 C 131.382812 482 30 380.617188 30 256 Z M 30 256 " style=" stroke:none;fill-rule:nonzero;fill:rgb(0%,0%,0%);fill-opacity:1;" />
</g>
</svg>